# xmcd CD database file
#
# Track frame offsets:
#150
#23430
#43820
#67453
#87530
#111173
#129528
#147268
#168575
#187513
#207213
#227055
#
# Disc length: 3275 seconds
#
# Revision: 1
# Processed by: cddbd v1.5.1PL0 Copyright (c) Steve Scherf et al.
# Submitted via: CDex 1.50Beta7
#
DISCID=a80cc90c
DTITLE=The Rippingtons - Let It Ripp
DYEAR=2003
DGENRE=Jazz
TTITLE0=Let It Ripp
TTITLE1=Mr. 3
TTITLE2=Lucky Charm
TTITLE3=A Private Getaway
TTITLE4=High Life
TTITLE5=Avalon
TTITLE6=Bella Luna
TTITLE7=Stingray
TTITLE8=17 Mile Drive
TTITLE9=Cast A Spell
TTITLE10=Get Over It
TTITLE11=She's The One
EXTD=YEAR: 2003
EXTT0=
EXTT1=
EXTT2=
EXTT3=
EXTT4=
EXTT5=
EXTT6=
EXTT7=
EXTT8=
EXTT9=
EXTT10=
EXTT11=
PLAYORDER=
